<svg xmlns="http://www.w3.org/2000/svg" width="65.812" height="58" viewBox="0 0 65.812 58"><g fill="#a29d86" stroke="#ccc" stroke-linejoin="bevel" stroke-width=".214"><path style="isolation:auto;mix-blend-mode:normal" fill="#e9e9ff" d="M18.93 18.826l9.323 3.394v10.957l-9.323-3.394z" color="#000" overflow="visible"/><path style="isolation:auto;mix-blend-mode:normal" fill="#353564" d="M9.47 22.27v10.957l9.46-3.444V18.826z" color="#000" overflow="visible"/><path style="isolation:auto;mix-blend-mode:normal" fill="#afafde" d="M9.47 33.227l9.322 3.393 9.46-3.443-9.322-3.394z" color="#000" overflow="visible"/><path fill="#f7f7f4" d="M9.47 22.27l9.322 3.393 9.46-3.443-9.322-3.394z"/><path fill="#fff" d="M18.792 25.663V36.62l9.46-3.443V22.22z"/><path fill="#efeeea" d="M9.47 22.27l9.322 3.393V36.62L9.47 33.227z"/><path style="isolation:auto;mix-blend-mode:normal" fill="#e9e9ff" d="M28.293 11.166l9.323 3.393v10.957l-9.323-3.393z" color="#000" overflow="visible"/><path style="isolation:auto;mix-blend-mode:normal" fill="#353564" d="M18.833 14.609v10.957l9.46-3.443V11.166z" color="#000" overflow="visible"/><path style="isolation:auto;mix-blend-mode:normal" fill="#afafde" d="M18.833 25.566l9.322 3.393 9.461-3.443-9.323-3.393z" color="#000" overflow="visible"/><path fill="#f7f7f4" d="M18.833 14.609l9.322 3.393 9.461-3.443-9.323-3.393z"/><path fill="#fff" d="M28.155 18.002V28.96l9.461-3.443V14.559z"/><path fill="#efeeea" d="M18.833 14.609l9.322 3.393V28.96l-9.322-3.393z"/><path style="isolation:auto;mix-blend-mode:normal" fill="#e9e9ff" d="M9.567 33.297l9.322 3.393v10.957l-9.322-3.393z" color="#000" overflow="visible"/><path style="isolation:auto;mix-blend-mode:normal" fill="#353564" d="M.106 36.74v10.957l9.46-3.443V33.297z" color="#000" overflow="visible"/><path style="isolation:auto;mix-blend-mode:normal" fill="#afafde" d="M.106 47.697L9.43 51.09l9.46-3.443-9.322-3.393z" color="#000" overflow="visible"/><path fill="#f7f7f4" d="M.106 36.74l9.323 3.393 9.46-3.443-9.322-3.393z"/><path fill="#fff" d="M9.429 40.133V51.09l9.46-3.443V36.69z"/><path fill="#efeeea" d="M.106 36.74l9.323 3.393V51.09L.106 47.697z"/></g><g fill="#a29d86" stroke="#ccc" stroke-linejoin="bevel" stroke-width=".214"><path style="isolation:auto;mix-blend-mode:normal" fill="#e9e9ff" d="M18.93 36.702l9.323 3.393v10.957l-9.323-3.393z" color="#000" overflow="visible"/><path style="isolation:auto;mix-blend-mode:normal" fill="#353564" d="M9.47 40.145v10.957l9.46-3.443V36.702z" color="#000" overflow="visible"/><path style="isolation:auto;mix-blend-mode:normal" fill="#afafde" d="M9.47 51.102l9.322 3.393 9.46-3.443-9.322-3.393z" color="#000" overflow="visible"/><path fill="#f7f7f4" d="M9.47 40.145l9.322 3.393 9.46-3.443-9.322-3.393z"/><path fill="#fff" d="M18.792 43.538v10.957l9.46-3.443V40.095z"/><path fill="#efeeea" d="M9.47 40.145l9.322 3.393v10.957L9.47 51.102z"/></g><g fill="#a29d86" stroke="#ccc" stroke-linejoin="bevel" stroke-width=".214"><path style="isolation:auto;mix-blend-mode:normal" fill="#e9e9ff" d="M18.93 25.636l9.323 3.393v10.957l-9.323-3.393z" color="#000" overflow="visible"/><path style="isolation:auto;mix-blend-mode:normal" fill="#353564" d="M9.47 29.08v10.956l9.46-3.443V25.636z" color="#000" overflow="visible"/><path style="isolation:auto;mix-blend-mode:normal" fill="#afafde" d="M9.47 40.036l9.322 3.394 9.46-3.444-9.322-3.393z" color="#000" overflow="visible"/><path fill="#f7f7f4" d="M9.47 29.08l9.322 3.393 9.46-3.444-9.322-3.393z"/><path fill="#fff" d="M18.792 32.473V43.43l9.46-3.444V29.03z"/><path fill="#efeeea" d="M9.47 29.08l9.322 3.393V43.43L9.47 40.036z"/></g><g fill="#a29d86" stroke="#ccc" stroke-linejoin="bevel" stroke-width=".214"><path style="isolation:auto;mix-blend-mode:normal" fill="#e9e9ff" d="M56.383 29.892l9.323 3.393v10.957l-9.323-3.393z" color="#000" overflow="visible"/><path style="isolation:auto;mix-blend-mode:normal" fill="#353564" d="M46.923 33.335v10.957l9.46-3.443V29.892z" color="#000" overflow="visible"/><path style="isolation:auto;mix-blend-mode:normal" fill="#afafde" d="M46.923 44.292l9.322 3.394 9.46-3.444-9.322-3.393z" color="#000" overflow="visible"/><path fill="#f7f7f4" d="M46.923 33.335l9.322 3.394 9.46-3.444-9.322-3.393z"/><path fill="#fff" d="M56.245 36.729v10.957l9.46-3.444V33.285z"/><path fill="#efeeea" d="M46.923 33.335l9.322 3.394v10.957l-9.322-3.394z"/></g><g transform="translate(-1683.66 -513.275) scale(.65177)"><g fill="#a29d86" stroke="#ccc" stroke-linejoin="bevel" stroke-width=".328"><path style="isolation:auto;mix-blend-mode:normal" fill="#e9e9ff" d="M2655.349 838.594l14.303 5.206v16.811l-14.303-5.206z" color="#000" overflow="visible"/><path style="isolation:auto;mix-blend-mode:normal" fill="#353564" d="M2640.834 843.877v16.811l14.515-5.283v-16.81z" color="#000" overflow="visible"/><path style="isolation:auto;mix-blend-mode:normal" fill="#afafde" d="M2640.834 860.688l14.303 5.206 14.515-5.283-14.303-5.206z" color="#000" overflow="visible"/><path fill="#f7f7f4" d="M2640.834 843.877l14.303 5.206 14.515-5.283-14.303-5.206z"/><path fill="#ffd242" d="M2655.137 849.083v16.811l14.515-5.283v-16.81z"/><path fill="#efeeea" d="M2640.834 843.877l14.303 5.206v16.811l-14.303-5.206z"/></g><circle cx="2835.218" cy="1823.899" r="2.967" fill="#fff" transform="skewY(-20) scale(.9397 1)"/></g><g fill="#a29d86" stroke="#ccc" stroke-linejoin="bevel" stroke-width=".214"><path style="isolation:auto;mix-blend-mode:normal" fill="#e9e9ff" d="M37.657 36.702l9.322 3.393v10.957l-9.322-3.393z" color="#000" overflow="visible"/><path style="isolation:auto;mix-blend-mode:normal" fill="#353564" d="M28.196 40.145v10.957l9.46-3.443V36.702z" color="#000" overflow="visible"/><path style="isolation:auto;mix-blend-mode:normal" fill="#afafde" d="M28.196 51.102l9.323 3.393 9.46-3.443-9.322-3.393z" color="#000" overflow="visible"/><path fill="#f7f7f4" d="M28.196 40.145l9.323 3.393 9.46-3.443-9.322-3.393z"/><path fill="#ffd242" d="M37.519 43.538v10.957l9.46-3.443V40.095z"/><path fill="#efeeea" d="M28.196 40.145l9.323 3.393v10.957l-9.323-3.393z"/></g><g fill="#a29d86" stroke="#ccc" stroke-linejoin="bevel" stroke-width=".214"><path style="isolation:auto;mix-blend-mode:normal" fill="#e9e9ff" d="M28.293 40.107l9.323 3.393v10.957l-9.323-3.393z" color="#000" overflow="visible"/><path style="isolation:auto;mix-blend-mode:normal" fill="#353564" d="M18.833 43.55v10.957l9.46-3.443V40.107z" color="#000" overflow="visible"/><path style="isolation:auto;mix-blend-mode:normal" fill="#afafde" d="M18.833 54.507l9.322 3.393 9.46-3.443-9.322-3.393z" color="#000" overflow="visible"/><path fill="#f7f7f4" d="M18.833 43.55l9.322 3.393 9.46-3.443-9.322-3.393z"/><path fill="#fff" d="M28.155 46.943V57.9l9.46-3.443V43.5z"/><path fill="#efeeea" d="M18.833 43.55l9.322 3.393V57.9l-9.322-3.393z"/></g><g fill="#a29d86" stroke="#ccc" stroke-linejoin="bevel" stroke-width=".214"><path style="isolation:auto;mix-blend-mode:normal" fill="#e9e9ff" d="M56.383 18.826l9.323 3.394v10.957l-9.323-3.394z" color="#000" overflow="visible"/><path style="isolation:auto;mix-blend-mode:normal" fill="#353564" d="M46.923 22.27v10.957l9.46-3.444V18.826z" color="#000" overflow="visible"/><path style="isolation:auto;mix-blend-mode:normal" fill="#afafde" d="M46.923 33.227l9.322 3.393 9.46-3.443-9.322-3.394z" color="#000" overflow="visible"/><path fill="#f7f7f4" d="M46.923 22.27l9.322 3.393 9.46-3.443-9.322-3.394z"/><path fill="#ffd242" d="M56.245 25.663V36.62l9.46-3.443V22.22z"/><path fill="#efeeea" d="M46.923 22.27l9.322 3.393V36.62l-9.322-3.393z"/></g><g fill="#a29d86" stroke="#ccc" stroke-linejoin="bevel" stroke-width=".214"><path style="isolation:auto;mix-blend-mode:normal" fill="#e9e9ff" d="M56.383 7.76l9.323 3.394V22.11l-9.323-3.393z" color="#000" overflow="visible"/><path style="isolation:auto;mix-blend-mode:normal" fill="#353564" d="M46.923 11.204v10.957l9.46-3.443V7.76z" color="#000" overflow="visible"/><path style="isolation:auto;mix-blend-mode:normal" fill="#afafde" d="M46.923 22.161l9.322 3.393 9.46-3.443-9.322-3.393z" color="#000" overflow="visible"/><path fill="#ffc91d" d="M46.923 11.204l9.322 3.393 9.46-3.443-9.322-3.393z"/><path fill="#ffd242" d="M56.245 14.597v10.957l9.46-3.443V11.154z"/><path fill="#efeeea" d="M46.923 11.204l9.322 3.393v10.957l-9.322-3.393z"/></g><g fill="#a29d86" stroke="#ccc" stroke-linejoin="bevel" stroke-width=".214"><path style="isolation:auto;mix-blend-mode:normal" fill="#e9e9ff" d="M47.02 22.231l9.322 3.393v10.957l-9.322-3.393z" color="#000" overflow="visible"/><path style="isolation:auto;mix-blend-mode:normal" fill="#353564" d="M37.56 25.675v10.957l9.46-3.444V22.231z" color="#000" overflow="visible"/><path style="isolation:auto;mix-blend-mode:normal" fill="#afafde" d="M37.56 36.632l9.322 3.393 9.46-3.444-9.322-3.393z" color="#000" overflow="visible"/><path fill="#f7f7f4" d="M37.56 25.675l9.322 3.393 9.46-3.444-9.322-3.393z"/><path fill="#ffd242" d="M46.882 29.068v10.957l9.46-3.444V25.624z"/><path fill="#efeeea" d="M37.56 25.675l9.322 3.393v10.957l-9.323-3.393z"/></g><g fill="#a29d86" stroke="#ccc" stroke-linejoin="bevel" stroke-width=".214"><path style="isolation:auto;mix-blend-mode:normal" fill="#e9e9ff" d="M47.02 11.166l9.322 3.393v10.957l-9.322-3.393z" color="#000" overflow="visible"/><path style="isolation:auto;mix-blend-mode:normal" fill="#353564" d="M37.56 14.609v10.957l9.46-3.443V11.166z" color="#000" overflow="visible"/><path style="isolation:auto;mix-blend-mode:normal" fill="#afafde" d="M37.56 25.566l9.322 3.393 9.46-3.443-9.322-3.393z" color="#000" overflow="visible"/><path fill="#f7f7f4" d="M37.56 14.609l9.322 3.393 9.46-3.443-9.322-3.393z"/><path fill="#3775a9" d="M46.882 18.002V28.96l9.46-3.443V14.559z"/><path fill="#efeeea" d="M37.56 14.609l9.322 3.393V28.96l-9.323-3.393z"/></g><g fill="#a29d86" stroke="#ccc" stroke-linejoin="bevel" stroke-width=".214"><path style="isolation:auto;mix-blend-mode:normal" fill="#e9e9ff" d="M47.02.1l9.322 3.393V14.45l-9.322-3.393z" color="#000" overflow="visible"/><path style="isolation:auto;mix-blend-mode:normal" fill="#353564" d="M37.56 3.543V14.5l9.46-3.443V.1z" color="#000" overflow="visible"/><path style="isolation:auto;mix-blend-mode:normal" fill="#afafde" d="M37.56 14.5l9.322 3.393 9.46-3.443-9.322-3.393z" color="#000" overflow="visible"/><path fill="#2f6491" d="M37.56 3.543l9.322 3.393 9.46-3.443L47.02.1z"/><path fill="#3775a9" d="M46.882 6.936v10.957l9.46-3.443V3.493z"/><path fill="#efeeea" d="M37.56 3.543l9.322 3.393v10.957L37.559 14.5z"/></g><g fill="#a29d86" stroke="#ccc" stroke-linejoin="bevel" stroke-width=".214"><path style="isolation:auto;mix-blend-mode:normal" fill="#e9e9ff" d="M37.657 25.636l9.322 3.393v10.957l-9.322-3.393z" color="#000" overflow="visible"/><path style="isolation:auto;mix-blend-mode:normal" fill="#353564" d="M28.196 29.08v10.956l9.46-3.443V25.636z" color="#000" overflow="visible"/><path style="isolation:auto;mix-blend-mode:normal" fill="#afafde" d="M28.196 40.036l9.323 3.394 9.46-3.444-9.322-3.393z" color="#000" overflow="visible"/><path fill="#f7f7f4" d="M28.196 29.08l9.323 3.393 9.46-3.444-9.322-3.393z"/><path fill="#ffd242" d="M37.519 32.473V43.43l9.46-3.444V29.03z"/><path fill="#efeeea" d="M28.196 29.08l9.323 3.393V43.43l-9.323-3.394z"/></g><g fill="#a29d86" stroke="#ccc" stroke-linejoin="bevel" stroke-width=".214"><path style="isolation:auto;mix-blend-mode:normal" fill="#e9e9ff" d="M37.657 14.57l9.322 3.394V28.92l-9.322-3.394z" color="#000" overflow="visible"/><path style="isolation:auto;mix-blend-mode:normal" fill="#353564" d="M28.196 18.014V28.97l9.46-3.444V14.57z" color="#000" overflow="visible"/><path style="isolation:auto;mix-blend-mode:normal" fill="#afafde" d="M28.196 28.97l9.323 3.394 9.46-3.443-9.322-3.394z" color="#000" overflow="visible"/><path fill="#f7f7f4" d="M28.196 18.014l9.323 3.393 9.46-3.443-9.322-3.394z"/><path fill="#3775a9" d="M37.519 21.407v10.957l9.46-3.443V17.964z"/><path fill="#efeeea" d="M28.196 18.014l9.323 3.393v10.957l-9.323-3.393z"/></g><g fill="#a29d86" stroke="#ccc" stroke-linejoin="bevel" stroke-width=".214"><path style="isolation:auto;mix-blend-mode:normal" fill="#e9e9ff" d="M28.293 29.04l9.323 3.394v10.957l-9.323-3.393z" color="#000" overflow="visible"/><path style="isolation:auto;mix-blend-mode:normal" fill="#353564" d="M18.833 32.484v10.957l9.46-3.443V29.04z" color="#000" overflow="visible"/><path style="isolation:auto;mix-blend-mode:normal" fill="#afafde" d="M18.833 43.441l9.322 3.393 9.46-3.443-9.322-3.393z" color="#000" overflow="visible"/><path fill="#f7f7f4" d="M18.833 32.484l9.322 3.393 9.46-3.443-9.322-3.393z"/><path fill="#3775a9" d="M28.155 35.877v10.957l9.46-3.443V32.434z"/><path fill="#2f6491" d="M18.833 32.484l9.322 3.393v10.957l-9.322-3.393z"/></g><g fill="#a29d86" stroke="#ccc" stroke-linejoin="bevel" stroke-width=".214"><path style="isolation:auto;mix-blend-mode:normal" fill="#e9e9ff" d="M28.293 17.975l9.323 3.393v10.957l-9.323-3.393z" color="#000" overflow="visible"/><path style="isolation:auto;mix-blend-mode:normal" fill="#353564" d="M18.833 21.419v10.957l9.46-3.444V17.975z" color="#000" overflow="visible"/><path style="isolation:auto;mix-blend-mode:normal" fill="#afafde" d="M18.833 32.376l9.322 3.393 9.46-3.444-9.322-3.393z" color="#000" overflow="visible"/><path fill="#2f6491" d="M18.833 21.419l9.322 3.393 9.46-3.444-9.322-3.393z"/><path fill="#3775a9" d="M28.155 24.812v10.957l9.46-3.444V21.368z"/><path fill="#2f6491" d="M18.833 21.419l9.322 3.393v10.957l-9.322-3.393z"/></g><g transform="translate(-1683.66 -513.275) scale(.65177)"><g fill="#a29d86" stroke="#ccc" stroke-linejoin="bevel" stroke-width=".328"><path style="isolation:auto;mix-blend-mode:normal" fill="#e9e9ff" d="M2640.983 792.885l14.304 5.206v16.811l-14.304-5.206z" color="#000" overflow="visible"/><path style="isolation:auto;mix-blend-mode:normal" fill="#353564" d="M2626.468 798.168v16.811l14.515-5.283v-16.811z" color="#000" overflow="visible"/><path style="isolation:auto;mix-blend-mode:normal" fill="#afafde" d="M2626.468 814.979l14.304 5.206 14.515-5.283-14.304-5.206z" color="#000" overflow="visible"/><path fill="#2f6491" d="M2626.468 798.168l14.304 5.206 14.515-5.283-14.304-5.206z"/><path fill="#3775a9" d="M2640.772 803.374v16.811l14.515-5.283v-16.811z"/><path fill="#2f6491" d="M2626.468 798.168l14.304 5.206v16.811l-14.304-5.206z"/></g><circle cx="2816.017" cy="1772.922" r="2.967" fill="#fff" transform="skewY(-20) scale(.9397 1)"/></g></svg>